<svg id="Bin" xmlns="http://www.w3.org/2000/svg" viewBox="0 0 48 48"><defs><style>.cls-1{fill:none;}</style></defs><title>Bin_POS</title><path d="M15,15H33a1,1,0,0,0,0-2H29.64a6,6,0,0,0-11.14-.4h0c-0.06.13-.1,0.27-0.15,0.4H15A1,1,0,0,0,15,15Zm9-4a4,4,0,0,1,3.46,2H20.54A4,4,0,0,1,24,11Zm9,6H15a1,1,0,0,0,0,2V38a1,1,0,0,0,1,1H32a1,1,0,0,0,1-1V19A1,1,0,0,0,33,17ZM31,37H17V19H31V37ZM19,34V22a1,1,0,0,1,2,0V34A1,1,0,0,1,19,34Zm4,0V22a1,1,0,0,1,2,0V34A1,1,0,0,1,23,34Zm4,0V22a1,1,0,0,1,2,0V34A1,1,0,0,1,27,34Z"/></svg>
